<svg width="178" height="86" viewBox="0 0 178 86" fill="none" xmlns="http://www.w3.org/2000/svg">
<path fill-rule="evenodd" clip-rule="evenodd" d="M48.6984 68.1329C67.5127 68.1329 82.7648 52.8808 82.7648 34.0664C82.7648 15.2521 67.5127 0 48.6984 0C32.2966 0 18.6021 11.5913 15.3597 27.0291L52.6679 7.10597V15.8838L14.6953 36.1617C14.9183 39.8366 15.7239 43.3543 17.0209 46.6235L52.6679 27.5875V36.3654L20.6789 53.4479C22.7273 56.4037 25.2314 59.0197 28.0895 61.1943L52.6679 48.0691V56.847L36.0646 65.7133C39.9713 67.2743 44.2345 68.1329 48.6984 68.1329Z" fill="white"/>
<path d="M58.31 53.7119L61.445 43.4711L63.1169 58.9368L0 85.0614L58.31 53.7119Z" fill="white"/>
<path d="M58.31 33.2303L61.445 22.9895L63.7439 42.0082L0 64.5798L58.31 33.2303Z" fill="white"/>
<path d="M58.31 12.7485L61.445 2.50769L47.2332 29.8862L0 44.098L58.31 12.7485Z" fill="white"/>
<path d="M104.022 7.84174V10.3957H98.1484V13.7354H102.647V16.1912H98.1484V19.5997H104.022V22.1536H94.8086V7.84174H104.022Z" fill="white"/>
<path d="M108.015 7.44883V22.1536H104.97V7.44883H108.015Z" fill="white"/>
<path d="M113.79 11.8102C114.465 11.8102 115.08 11.9149 115.637 12.1245C116.2 12.3341 116.681 12.6386 117.081 13.038C117.487 13.4375 117.801 13.9286 118.024 14.5114C118.253 15.0877 118.368 15.7426 118.368 16.476C118.368 16.7052 118.358 16.8918 118.338 17.0359C118.319 17.18 118.283 17.2946 118.23 17.3797C118.178 17.4648 118.106 17.5238 118.014 17.5565C117.929 17.5893 117.818 17.6056 117.68 17.6056H111.806C111.904 18.457 112.163 19.0758 112.582 19.4622C113.001 19.842 113.541 20.0319 114.203 20.0319C114.556 20.0319 114.861 19.9893 115.116 19.9042C115.372 19.8191 115.598 19.7241 115.794 19.6193C115.997 19.5145 116.181 19.4196 116.344 19.3345C116.514 19.2493 116.691 19.2068 116.875 19.2068C117.117 19.2068 117.3 19.2952 117.425 19.472L118.309 20.5623C117.994 20.9225 117.654 21.2172 117.287 21.4464C116.927 21.669 116.554 21.8458 116.167 21.9768C115.788 22.1012 115.405 22.1864 115.018 22.2322C114.638 22.2846 114.275 22.3108 113.928 22.3108C113.214 22.3108 112.543 22.1962 111.914 21.967C111.292 21.7312 110.745 21.3842 110.274 20.9258C109.809 20.4674 109.439 19.8976 109.164 19.2166C108.895 18.5355 108.761 17.7432 108.761 16.8395C108.761 16.1584 108.876 15.5134 109.105 14.9044C109.341 14.2953 109.675 13.7616 110.107 13.3032C110.545 12.8448 111.073 12.4814 111.688 12.2129C112.31 11.9444 113.011 11.8102 113.79 11.8102ZM113.849 13.9123C113.266 13.9123 112.811 14.0792 112.484 14.4132C112.156 14.7406 111.94 15.2154 111.836 15.8375H115.637C115.637 15.5952 115.604 15.3595 115.539 15.1303C115.48 14.9011 115.378 14.6981 115.234 14.5213C115.097 14.3379 114.913 14.1906 114.684 14.0792C114.455 13.9679 114.177 13.9123 113.849 13.9123Z" fill="white"/>
<path d="M126.418 14.3838C126.326 14.4951 126.238 14.5835 126.152 14.649C126.067 14.7145 125.946 14.7472 125.789 14.7472C125.638 14.7472 125.501 14.7112 125.376 14.6391C125.259 14.5671 125.124 14.4885 124.974 14.4034C124.823 14.3117 124.646 14.2299 124.443 14.1578C124.24 14.0858 123.988 14.0498 123.687 14.0498C123.314 14.0498 122.989 14.1185 122.714 14.2561C122.446 14.3936 122.223 14.59 122.046 14.8454C121.87 15.1008 121.739 15.4151 121.654 15.7884C121.568 16.1551 121.526 16.571 121.526 17.0359C121.526 18.0117 121.712 18.7615 122.086 19.2853C122.466 19.8092 122.986 20.0712 123.648 20.0712C124.001 20.0712 124.28 20.0286 124.483 19.9435C124.692 19.8518 124.869 19.7536 125.013 19.6488C125.157 19.5375 125.288 19.436 125.406 19.3443C125.53 19.2526 125.684 19.2068 125.868 19.2068C126.11 19.2068 126.293 19.2952 126.418 19.472L127.302 20.5623C126.987 20.9225 126.657 21.2172 126.31 21.4464C125.963 21.669 125.606 21.8458 125.239 21.9768C124.879 22.1012 124.515 22.1864 124.149 22.2322C123.782 22.2846 123.425 22.3108 123.078 22.3108C122.456 22.3108 121.86 22.1929 121.29 21.9572C120.727 21.7214 120.229 21.3809 119.797 20.9356C119.371 20.4837 119.031 19.9304 118.775 19.2755C118.527 18.6207 118.402 17.8741 118.402 17.0359C118.402 16.3025 118.51 15.6182 118.726 14.9829C118.949 14.3412 119.273 13.7878 119.699 13.3229C120.131 12.8514 120.661 12.4814 121.29 12.2129C121.925 11.9444 122.659 11.8102 123.49 11.8102C124.289 11.8102 124.99 11.9379 125.593 12.1933C126.195 12.4487 126.739 12.8219 127.223 13.3131L126.418 14.3838Z" fill="white"/>
<path d="M131.155 22.3108C130.67 22.3108 130.241 22.242 129.868 22.1045C129.501 21.9604 129.19 21.7607 128.935 21.5053C128.686 21.2434 128.496 20.929 128.365 20.5623C128.234 20.1956 128.169 19.7863 128.169 19.3345V14.0694H127.304C127.147 14.0694 127.013 14.0203 126.902 13.9221C126.79 13.8173 126.735 13.6667 126.735 13.4702V12.2817L128.355 11.9673L128.955 9.48216C129.033 9.16783 129.256 9.01066 129.623 9.01066H131.214V11.987H133.689V14.0694H131.214V19.1282C131.214 19.3639 131.27 19.5604 131.381 19.7176C131.499 19.8682 131.666 19.9435 131.882 19.9435C131.993 19.9435 132.085 19.9337 132.157 19.914C132.235 19.8878 132.301 19.8616 132.353 19.8354C132.412 19.8027 132.465 19.7765 132.51 19.7568C132.563 19.7306 132.622 19.7176 132.687 19.7176C132.779 19.7176 132.851 19.7405 132.903 19.7863C132.962 19.8256 133.021 19.8911 133.08 19.9828L134.004 21.4267C133.611 21.7214 133.169 21.9441 132.677 22.0947C132.186 22.2387 131.679 22.3108 131.155 22.3108Z" fill="white"/>
<path d="M134.4 22.1536V11.9673H136.208C136.358 11.9673 136.483 11.9804 136.581 12.0066C136.686 12.0328 136.771 12.0754 136.836 12.1343C136.908 12.1867 136.961 12.2587 136.994 12.3504C137.033 12.4421 137.066 12.5534 137.092 12.6844L137.259 13.6372C137.632 13.0609 138.051 12.6058 138.516 12.2718C138.981 11.9379 139.489 11.7709 140.039 11.7709C140.504 11.7709 140.877 11.8822 141.158 12.1049L140.766 14.3445C140.739 14.482 140.687 14.5802 140.608 14.6391C140.53 14.6915 140.425 14.7177 140.294 14.7177C140.183 14.7177 140.052 14.7046 139.901 14.6784C139.751 14.6457 139.561 14.6293 139.331 14.6293C138.533 14.6293 137.904 15.055 137.445 15.9063V22.1536H134.4Z" fill="white"/>
<path d="M144.614 11.9673V22.1536H141.569V11.9673H144.614ZM144.968 9.17765C144.968 9.41994 144.919 9.64914 144.82 9.86525C144.722 10.0748 144.588 10.2614 144.418 10.4251C144.247 10.5823 144.048 10.71 143.818 10.8082C143.596 10.8999 143.357 10.9458 143.101 10.9458C142.852 10.9458 142.62 10.8999 142.404 10.8082C142.188 10.71 141.995 10.5823 141.824 10.4251C141.661 10.2614 141.53 10.0748 141.431 9.86525C141.34 9.64914 141.294 9.41994 141.294 9.17765C141.294 8.9288 141.34 8.69633 141.431 8.48023C141.53 8.26412 141.661 8.07422 141.824 7.9105C141.995 7.74679 142.188 7.61909 142.404 7.52741C142.62 7.43573 142.852 7.38989 143.101 7.38989C143.357 7.38989 143.596 7.43573 143.818 7.52741C144.048 7.61909 144.247 7.74679 144.418 7.9105C144.588 8.07422 144.722 8.26412 144.82 8.48023C144.919 8.69633 144.968 8.9288 144.968 9.17765Z" fill="white"/>
<path d="M153.375 14.3838C153.284 14.4951 153.195 14.5835 153.11 14.649C153.025 14.7145 152.904 14.7472 152.747 14.7472C152.596 14.7472 152.459 14.7112 152.334 14.6391C152.216 14.5671 152.082 14.4885 151.931 14.4034C151.781 14.3117 151.604 14.2299 151.401 14.1578C151.198 14.0858 150.946 14.0498 150.645 14.0498C150.271 14.0498 149.947 14.1185 149.672 14.2561C149.404 14.3936 149.181 14.59 149.004 14.8454C148.827 15.1008 148.696 15.4151 148.611 15.7884C148.526 16.1551 148.484 16.571 148.484 17.0359C148.484 18.0117 148.67 18.7615 149.043 19.2853C149.423 19.8092 149.944 20.0712 150.605 20.0712C150.959 20.0712 151.237 20.0286 151.44 19.9435C151.65 19.8518 151.827 19.7536 151.971 19.6488C152.115 19.5375 152.246 19.436 152.364 19.3443C152.488 19.2526 152.642 19.2068 152.825 19.2068C153.068 19.2068 153.251 19.2952 153.375 19.472L154.259 20.5623C153.945 20.9225 153.614 21.2172 153.267 21.4464C152.92 21.669 152.563 21.8458 152.197 21.9768C151.836 22.1012 151.473 22.1864 151.106 22.2322C150.74 22.2846 150.383 22.3108 150.036 22.3108C149.413 22.3108 148.818 22.1929 148.248 21.9572C147.685 21.7214 147.187 21.3809 146.755 20.9356C146.329 20.4837 145.989 19.9304 145.733 19.2755C145.484 18.6207 145.36 17.8741 145.36 17.0359C145.36 16.3025 145.468 15.6182 145.684 14.9829C145.907 14.3412 146.231 13.7878 146.656 13.3229C147.089 12.8514 147.619 12.4814 148.248 12.2129C148.883 11.9444 149.616 11.8102 150.448 11.8102C151.247 11.8102 151.948 11.9379 152.55 12.1933C153.153 12.4487 153.696 12.8219 154.181 13.3131L153.375 14.3838Z" fill="white"/>
<path d="M161.57 22.1536C161.282 22.1536 161.063 22.1143 160.912 22.0357C160.768 21.9572 160.647 21.7934 160.549 21.5446L160.333 20.9847C160.077 21.2008 159.832 21.3907 159.596 21.5544C159.36 21.7181 159.115 21.8589 158.859 21.9768C158.61 22.0881 158.342 22.17 158.054 22.2224C157.772 22.2813 157.458 22.3108 157.111 22.3108C156.646 22.3108 156.223 22.2518 155.844 22.134C155.464 22.0095 155.14 21.8295 154.871 21.5937C154.609 21.358 154.406 21.0666 154.262 20.7195C154.118 20.3659 154.046 19.9598 154.046 19.5014C154.046 19.1413 154.138 18.7713 154.321 18.3915C154.504 18.0117 154.822 17.6679 155.274 17.3601C155.726 17.0457 156.335 16.7838 157.101 16.5742C157.867 16.3647 158.833 16.2468 159.999 16.2206V15.7884C159.999 15.1925 159.874 14.7636 159.625 14.5016C159.383 14.2331 159.036 14.0989 158.584 14.0989C158.224 14.0989 157.929 14.1382 157.7 14.2168C157.471 14.2953 157.265 14.3838 157.081 14.482C156.904 14.5802 156.731 14.6686 156.561 14.7472C156.39 14.8258 156.187 14.8651 155.952 14.8651C155.742 14.8651 155.562 14.816 155.411 14.7177C155.267 14.6129 155.153 14.4853 155.068 14.3346L154.517 13.3818C155.133 12.8383 155.814 12.4356 156.561 12.1736C157.314 11.9051 158.119 11.7709 158.977 11.7709C159.593 11.7709 160.146 11.8724 160.637 12.0754C161.135 12.2718 161.554 12.5502 161.894 12.9103C162.241 13.2639 162.507 13.6863 162.69 14.1775C162.873 14.6686 162.965 15.2056 162.965 15.7884V22.1536H161.57ZM158.073 20.2971C158.466 20.2971 158.81 20.2283 159.105 20.0908C159.399 19.9533 159.697 19.7306 159.999 19.4229V18.0084C159.39 18.0346 158.889 18.087 158.496 18.1655C158.103 18.2441 157.792 18.3424 157.563 18.4602C157.333 18.5781 157.173 18.7123 157.081 18.863C156.996 19.0136 156.954 19.1773 156.954 19.3541C156.954 19.7012 157.048 19.9467 157.238 20.0908C157.428 20.2283 157.707 20.2971 158.073 20.2971Z" fill="white"/>
<path d="M167.226 7.44883V22.1536H164.181V7.44883H167.226Z" fill="white"/>
<path d="M102.785 30.3948C102.687 30.5519 102.582 30.6698 102.471 30.7484C102.366 30.827 102.228 30.8663 102.058 30.8663C101.907 30.8663 101.744 30.8204 101.567 30.7287C101.397 30.6305 101.2 30.5225 100.978 30.4046C100.761 30.2867 100.513 30.1819 100.231 30.0902C99.9494 29.992 99.6285 29.9429 99.2684 29.9429C98.6463 29.9429 98.1813 30.0772 97.8735 30.3456C97.5723 30.6076 97.4217 30.9645 97.4217 31.4163C97.4217 31.7045 97.5134 31.9435 97.6967 32.1334C97.8801 32.3233 98.1191 32.487 98.4138 32.6245C98.715 32.7621 99.0555 32.8898 99.4354 33.0076C99.8217 33.119 100.215 33.2467 100.614 33.3907C101.014 33.5282 101.403 33.692 101.783 33.8819C102.169 34.0718 102.51 34.3141 102.805 34.6088C103.106 34.9034 103.348 35.2636 103.531 35.6893C103.715 36.1084 103.807 36.6159 103.807 37.2118C103.807 37.8732 103.692 38.492 103.463 39.0683C103.234 39.6446 102.9 40.1488 102.461 40.581C102.029 41.0067 101.492 41.3439 100.85 41.5928C100.215 41.8351 99.491 41.9562 98.679 41.9562C98.2337 41.9562 97.7786 41.9104 97.3136 41.8187C96.8552 41.727 96.4099 41.5993 95.9777 41.4356C95.5455 41.2654 95.1395 41.0656 94.7597 40.8364C94.3799 40.6072 94.0492 40.3518 93.7676 40.0702L94.7499 38.5182C94.8219 38.4004 94.9234 38.3054 95.0544 38.2334C95.1853 38.1613 95.3261 38.1253 95.4768 38.1253C95.6732 38.1253 95.8697 38.1875 96.0661 38.312C96.2691 38.4364 96.4951 38.5739 96.7439 38.7245C96.9993 38.8751 97.2907 39.0127 97.6181 39.1371C97.9456 39.2615 98.3319 39.3237 98.7772 39.3237C99.3797 39.3237 99.8479 39.1927 100.182 38.9308C100.516 38.6623 100.683 38.2399 100.683 37.6637C100.683 37.3297 100.591 37.0579 100.408 36.8484C100.224 36.6388 99.9822 36.4653 99.6809 36.3277C99.3862 36.1902 99.049 36.0691 98.6692 35.9643C98.2894 35.8595 97.8997 35.7449 97.5003 35.6205C97.1008 35.4895 96.7112 35.3324 96.3313 35.149C95.9515 34.9591 95.611 34.7135 95.3098 34.4123C95.0151 34.1045 94.7761 33.7247 94.5927 33.2728C94.4093 32.8144 94.3177 32.2513 94.3177 31.5833C94.3177 31.0463 94.4257 30.5225 94.6418 30.0117C94.8579 29.5009 95.1755 29.0458 95.5946 28.6463C96.0137 28.2468 96.5278 27.9292 97.1368 27.6935C97.7458 27.4512 98.4432 27.33 99.2291 27.33C99.6678 27.33 100.093 27.366 100.506 27.4381C100.925 27.5036 101.321 27.6051 101.695 27.7426C102.068 27.8736 102.415 28.034 102.736 28.2239C103.063 28.4073 103.355 28.6168 103.61 28.8526L102.785 30.3948Z" fill="white"/>
<path d="M112.072 41.7991C111.784 41.7991 111.564 41.7598 111.414 41.6812C111.27 41.6026 111.148 41.4389 111.05 41.1901L110.834 40.6301C110.579 40.8463 110.333 41.0362 110.097 41.1999C109.862 41.3636 109.616 41.5044 109.361 41.6223C109.112 41.7336 108.843 41.8154 108.555 41.8678C108.274 41.9268 107.959 41.9562 107.612 41.9562C107.147 41.9562 106.725 41.8973 106.345 41.7794C105.965 41.655 105.641 41.4749 105.373 41.2392C105.111 41.0034 104.908 40.712 104.764 40.3649C104.619 40.0113 104.547 39.6053 104.547 39.1469C104.547 38.7867 104.639 38.4167 104.823 38.0369C105.006 37.6571 105.323 37.3133 105.775 37.0055C106.227 36.6912 106.836 36.4293 107.602 36.2197C108.369 36.0101 109.334 35.8923 110.5 35.8661V35.4339C110.5 34.838 110.376 34.409 110.127 34.1471C109.885 33.8786 109.537 33.7443 109.086 33.7443C108.725 33.7443 108.431 33.7836 108.202 33.8622C107.972 33.9408 107.766 34.0292 107.583 34.1274C107.406 34.2257 107.232 34.3141 107.062 34.3927C106.892 34.4712 106.689 34.5105 106.453 34.5105C106.244 34.5105 106.063 34.4614 105.913 34.3632C105.769 34.2584 105.654 34.1307 105.569 33.9801L105.019 33.0273C105.635 32.4837 106.316 32.081 107.062 31.8191C107.815 31.5506 108.621 31.4163 109.479 31.4163C110.094 31.4163 110.647 31.5178 111.139 31.7208C111.636 31.9173 112.055 32.1956 112.396 32.5558C112.743 32.9094 113.008 33.3318 113.192 33.8229C113.375 34.3141 113.467 34.851 113.467 35.4339V41.7991H112.072ZM108.575 39.9426C108.968 39.9426 109.312 39.8738 109.606 39.7363C109.901 39.5988 110.199 39.3761 110.5 39.0683V37.6538C109.891 37.68 109.39 37.7324 108.997 37.811C108.604 37.8896 108.293 37.9878 108.064 38.1057C107.835 38.2236 107.674 38.3578 107.583 38.5084C107.498 38.659 107.455 38.8227 107.455 38.9996C107.455 39.3466 107.55 39.5922 107.74 39.7363C107.93 39.8738 108.208 39.9426 108.575 39.9426Z" fill="white"/>
<path d="M115.663 41.7991V33.7051L114.995 33.5675C114.766 33.5151 114.579 33.4333 114.435 33.322C114.297 33.2106 114.229 33.0469 114.229 32.8308V31.6324H115.663V31.0529C115.663 30.4701 115.754 29.9429 115.938 29.4714C116.128 28.9999 116.396 28.5972 116.743 28.2632C117.097 27.9292 117.526 27.6706 118.03 27.4872C118.534 27.3038 119.107 27.2122 119.749 27.2122C119.998 27.2122 120.227 27.2285 120.437 27.2613C120.653 27.2875 120.875 27.3333 121.105 27.3988L121.046 28.882C121.039 28.9868 121.01 29.0752 120.957 29.1473C120.911 29.2127 120.852 29.2684 120.78 29.3142C120.708 29.3535 120.627 29.383 120.535 29.4026C120.45 29.4223 120.365 29.4321 120.279 29.4321C120.011 29.4321 119.772 29.4583 119.562 29.5107C119.353 29.5631 119.176 29.658 119.032 29.7956C118.894 29.9265 118.79 30.1033 118.718 30.326C118.646 30.5421 118.61 30.8171 118.61 31.1511V31.6324H121.006V33.7149H118.708V41.7991H115.663Z" fill="white"/>
<path d="M126.272 31.4556C126.946 31.4556 127.562 31.5604 128.119 31.77C128.682 31.9795 129.163 32.284 129.563 32.6835C129.969 33.0829 130.283 33.5741 130.506 34.1569C130.735 34.7332 130.849 35.388 130.849 36.1215C130.849 36.3507 130.84 36.5373 130.82 36.6814C130.8 36.8254 130.764 36.94 130.712 37.0252C130.659 37.1103 130.587 37.1692 130.496 37.202C130.411 37.2347 130.299 37.2511 130.162 37.2511H124.288C124.386 38.1024 124.645 38.7212 125.064 39.1076C125.483 39.4874 126.023 39.6773 126.684 39.6773C127.038 39.6773 127.343 39.6348 127.598 39.5496C127.853 39.4645 128.079 39.3696 128.276 39.2648C128.479 39.16 128.662 39.065 128.826 38.9799C128.996 38.8948 129.173 38.8522 129.356 38.8522C129.599 38.8522 129.782 38.9406 129.906 39.1174L130.79 40.2078C130.476 40.5679 130.136 40.8626 129.769 41.0918C129.409 41.3145 129.035 41.4913 128.649 41.6223C128.269 41.7467 127.886 41.8318 127.5 41.8776C127.12 41.93 126.757 41.9562 126.409 41.9562C125.696 41.9562 125.024 41.8416 124.396 41.6124C123.774 41.3767 123.227 41.0296 122.755 40.5712C122.29 40.1128 121.92 39.5431 121.645 38.862C121.377 38.181 121.243 37.3886 121.243 36.4849C121.243 35.8039 121.357 35.1588 121.586 34.5498C121.822 33.9408 122.156 33.4071 122.588 32.9487C123.027 32.4903 123.554 32.1268 124.17 31.8584C124.792 31.5899 125.493 31.4556 126.272 31.4556ZM126.331 33.5577C125.748 33.5577 125.293 33.7247 124.965 34.0587C124.638 34.3861 124.422 34.8609 124.317 35.483H128.119C128.119 35.2407 128.086 35.0049 128.02 34.7757C127.961 34.5465 127.86 34.3435 127.716 34.1667C127.578 33.9834 127.395 33.836 127.166 33.7247C126.937 33.6134 126.658 33.5577 126.331 33.5577Z" fill="white"/>
<path d="M135.754 41.9562C135.27 41.9562 134.841 41.8875 134.467 41.75C134.101 41.6059 133.79 41.4062 133.534 41.1508C133.285 40.8888 133.096 40.5745 132.965 40.2078C132.834 39.841 132.768 39.4318 132.768 38.9799V33.7149H131.904C131.747 33.7149 131.612 33.6658 131.501 33.5675C131.39 33.4628 131.334 33.3121 131.334 33.1157V31.9271L132.955 31.6128L133.554 29.1276C133.633 28.8133 133.855 28.6561 134.222 28.6561H135.813V31.6324H138.289V33.7149H135.813V38.7736C135.813 39.0094 135.869 39.2058 135.98 39.363C136.098 39.5136 136.265 39.5889 136.481 39.5889C136.592 39.5889 136.684 39.5791 136.756 39.5595C136.835 39.5333 136.9 39.5071 136.953 39.4809C137.012 39.4481 137.064 39.4219 137.11 39.4023C137.162 39.3761 137.221 39.363 137.287 39.363C137.378 39.363 137.45 39.3859 137.503 39.4318C137.562 39.4711 137.621 39.5365 137.68 39.6282L138.603 41.0722C138.21 41.3669 137.768 41.5895 137.277 41.7401C136.786 41.8842 136.278 41.9562 135.754 41.9562Z" fill="white"/>
<path d="M143.792 44.4414C143.7 44.6444 143.589 44.7918 143.458 44.8834C143.327 44.9817 143.117 45.0308 142.829 45.0308H140.55L142.515 40.9052L138.448 31.6128H141.139C141.375 31.6128 141.559 31.6652 141.689 31.77C141.82 31.8747 141.912 31.9992 141.965 32.1432L143.634 36.534C143.792 36.94 143.919 37.346 144.018 37.7521C144.083 37.5425 144.155 37.3362 144.234 37.1332C144.312 36.9302 144.388 36.7239 144.46 36.5144L145.972 32.1432C146.025 31.9926 146.126 31.8682 146.277 31.77C146.434 31.6652 146.601 31.6128 146.778 31.6128H149.233L143.792 44.4414Z" fill="white"/>
<path d="M108.129 61.4449H105.556C105.268 61.4449 105.029 61.3794 104.839 61.2484C104.655 61.1109 104.528 60.9374 104.456 60.7278L103.611 58.2328H98.1689L97.3241 60.7278C97.2586 60.9112 97.1309 61.0782 96.941 61.2288C96.7511 61.3728 96.5187 61.4449 96.2436 61.4449H93.6504L99.1905 47.133H102.589L108.129 61.4449ZM98.9351 55.9736H102.845L101.528 52.0542C101.443 51.8054 101.342 51.514 101.224 51.18C101.112 50.8395 101.001 50.4728 100.89 50.0799C100.785 50.4793 100.677 50.8493 100.566 51.1898C100.454 51.5304 100.35 51.825 100.251 52.0739L98.9351 55.9736Z" fill="white"/>
<path d="M111.516 51.2586V57.722C111.516 58.2263 111.631 58.6159 111.86 58.8909C112.089 59.166 112.426 59.3035 112.872 59.3035C113.205 59.3035 113.517 59.2347 113.805 59.0972C114.099 58.9597 114.384 58.7665 114.659 58.5177V51.2586H117.704V61.4449H115.818C115.439 61.4449 115.19 61.2746 115.072 60.9341L114.885 60.3447C114.689 60.5346 114.486 60.7082 114.276 60.8653C114.067 61.0159 113.841 61.1469 113.598 61.2582C113.363 61.363 113.107 61.4449 112.832 61.5038C112.557 61.5693 112.256 61.602 111.929 61.602C111.372 61.602 110.877 61.5071 110.445 61.3172C110.02 61.1207 109.659 60.849 109.365 60.5019C109.07 60.1548 108.847 59.7455 108.697 59.274C108.546 58.8025 108.471 58.2852 108.471 57.722V51.2586H111.516Z" fill="white"/>
<path d="M123.012 61.602C122.527 61.602 122.098 61.5333 121.725 61.3958C121.358 61.2517 121.047 61.052 120.792 60.7966C120.543 60.5346 120.353 60.2203 120.222 59.8536C120.091 59.4869 120.026 59.0776 120.026 58.6257V53.3607H119.161C119.004 53.3607 118.87 53.3116 118.759 53.2133C118.647 53.1086 118.592 52.9579 118.592 52.7615V51.5729L120.212 51.2586L120.812 48.7734C120.89 48.4591 121.113 48.3019 121.48 48.3019H123.071V51.2782H125.546V53.3607H123.071V58.4194C123.071 58.6552 123.126 58.8516 123.238 59.0088C123.356 59.1594 123.523 59.2347 123.739 59.2347C123.85 59.2347 123.942 59.2249 124.014 59.2053C124.092 59.1791 124.158 59.1529 124.21 59.1267C124.269 59.0939 124.322 59.0677 124.367 59.0481C124.42 59.0219 124.479 59.0088 124.544 59.0088C124.636 59.0088 124.708 59.0317 124.76 59.0776C124.819 59.1169 124.878 59.1823 124.937 59.274L125.861 60.718C125.468 61.0127 125.026 61.2353 124.534 61.3859C124.043 61.53 123.536 61.602 123.012 61.602Z" fill="white"/>
<path d="M126.675 61.4449V46.7401H129.72V52.1525C130.087 51.8381 130.483 51.586 130.909 51.3961C131.341 51.1997 131.855 51.1014 132.451 51.1014C133.008 51.1014 133.499 51.1997 133.925 51.3961C134.357 51.586 134.72 51.8545 135.015 52.2016C135.31 52.5421 135.532 52.9514 135.683 53.4294C135.833 53.9009 135.909 54.415 135.909 54.9716V61.4449H132.864V54.9716C132.864 54.4739 132.749 54.0876 132.52 53.8125C132.291 53.5309 131.953 53.3901 131.508 53.3901C131.174 53.3901 130.86 53.4622 130.565 53.6063C130.27 53.7503 129.989 53.9435 129.72 54.1858V61.4449H126.675Z" fill="white"/>
<path d="M141.983 51.1014C142.755 51.1014 143.459 51.2226 144.094 51.4649C144.73 51.7072 145.273 52.0542 145.725 52.5061C146.183 52.9579 146.537 53.508 146.786 54.1563C147.041 54.7981 147.169 55.5217 147.169 56.3272C147.169 57.1392 147.041 57.8726 146.786 58.5275C146.537 59.1758 146.183 59.7291 145.725 60.1875C145.273 60.6394 144.73 60.9897 144.094 61.2386C143.459 61.4809 142.755 61.602 141.983 61.602C141.203 61.602 140.493 61.4809 139.851 61.2386C139.216 60.9897 138.666 60.6394 138.201 60.1875C137.742 59.7291 137.385 59.1758 137.13 58.5275C136.881 57.8726 136.757 57.1392 136.757 56.3272C136.757 55.5217 136.881 54.7981 137.13 54.1563C137.385 53.508 137.742 52.9579 138.201 52.5061C138.666 52.0542 139.216 51.7072 139.851 51.4649C140.493 51.2226 141.203 51.1014 141.983 51.1014ZM141.983 59.3428C142.683 59.3428 143.197 59.0972 143.525 58.6061C143.859 58.1084 144.026 57.3553 144.026 56.3468C144.026 55.3383 143.859 54.5885 143.525 54.0974C143.197 53.6063 142.683 53.3607 141.983 53.3607C141.262 53.3607 140.735 53.6063 140.401 54.0974C140.067 54.5885 139.9 55.3383 139.9 56.3468C139.9 57.3553 140.067 58.1084 140.401 58.6061C140.735 59.0972 141.262 59.3428 141.983 59.3428Z" fill="white"/>
<path d="M148.213 61.4449V51.2586H150.021C150.171 51.2586 150.296 51.2717 150.394 51.2979C150.499 51.3241 150.584 51.3666 150.649 51.4256C150.721 51.478 150.774 51.55 150.807 51.6417C150.846 51.7334 150.879 51.8447 150.905 51.9757L151.072 52.9285C151.445 52.3522 151.864 51.8971 152.329 51.5631C152.794 51.2291 153.302 51.0621 153.852 51.0621C154.317 51.0621 154.69 51.1735 154.972 51.3961L154.579 53.6357C154.552 53.7732 154.5 53.8715 154.421 53.9304C154.343 53.9828 154.238 54.009 154.107 54.009C153.996 54.009 153.865 53.9959 153.714 53.9697C153.564 53.937 153.374 53.9206 153.144 53.9206C152.346 53.9206 151.717 54.3462 151.258 55.1975V61.4449H148.213Z" fill="white"/>
<path d="M158.845 51.2586V61.4449H155.8V51.2586H158.845ZM159.199 48.4689C159.199 48.7112 159.15 48.9404 159.051 49.1565C158.953 49.3661 158.819 49.5527 158.649 49.7164C158.478 49.8736 158.279 50.0013 158.049 50.0995C157.827 50.1912 157.588 50.237 157.332 50.237C157.083 50.237 156.851 50.1912 156.635 50.0995C156.419 50.0013 156.226 49.8736 156.055 49.7164C155.892 49.5527 155.761 49.3661 155.662 49.1565C155.571 48.9404 155.525 48.7112 155.525 48.4689C155.525 48.2201 155.571 47.9876 155.662 47.7715C155.761 47.5554 155.892 47.3655 156.055 47.2018C156.226 47.038 156.419 46.9104 156.635 46.8187C156.851 46.727 157.083 46.6812 157.332 46.6812C157.588 46.6812 157.827 46.727 158.049 46.8187C158.279 46.9104 158.478 47.038 158.649 47.2018C158.819 47.3655 158.953 47.5554 159.051 47.7715C159.15 47.9876 159.199 48.2201 159.199 48.4689Z" fill="white"/>
<path d="M164.252 61.602C163.768 61.602 163.339 61.5333 162.966 61.3958C162.599 61.2517 162.288 61.052 162.032 60.7966C161.784 60.5346 161.594 60.2203 161.463 59.8536C161.332 59.4869 161.266 59.0776 161.266 58.6257V53.3607H160.402C160.245 53.3607 160.11 53.3116 159.999 53.2133C159.888 53.1086 159.832 52.9579 159.832 52.7615V51.5729L161.453 51.2586L162.052 48.7734C162.131 48.4591 162.353 48.3019 162.72 48.3019H164.311V51.2782H166.787V53.3607H164.311V58.4194C164.311 58.6552 164.367 58.8516 164.478 59.0088C164.596 59.1594 164.763 59.2347 164.979 59.2347C165.091 59.2347 165.182 59.2249 165.254 59.2053C165.333 59.1791 165.398 59.1529 165.451 59.1267C165.51 59.0939 165.562 59.0677 165.608 59.0481C165.66 59.0219 165.719 59.0088 165.785 59.0088C165.876 59.0088 165.948 59.0317 166.001 59.0776C166.06 59.1169 166.119 59.1823 166.178 59.274L167.101 60.718C166.708 61.0127 166.266 61.2353 165.775 61.3859C165.284 61.53 164.776 61.602 164.252 61.602Z" fill="white"/>
<path d="M172.081 64.0872C171.989 64.2902 171.878 64.4376 171.747 64.5292C171.616 64.6275 171.406 64.6766 171.118 64.6766H168.839L170.804 60.551L166.737 51.2586H169.429C169.664 51.2586 169.848 51.311 169.979 51.4158C170.11 51.5205 170.201 51.645 170.254 51.789L171.924 56.1798C172.081 56.5858 172.208 56.9919 172.307 57.3979C172.372 57.1883 172.444 56.982 172.523 56.779C172.601 56.576 172.677 56.3697 172.749 56.1602L174.261 51.789C174.314 51.6384 174.415 51.514 174.566 51.4158C174.723 51.311 174.89 51.2586 175.067 51.2586H177.523L172.081 64.0872Z" fill="white"/>
</svg>
